#N canvas 337 377 748 502 12;
#X obj 101 46 inlet;
#X obj 104 260 outlet;
#X obj 96 90 list trim;
#X obj 512 271 outlet;
#X obj 103 134 route \$1;
#X obj 420 135 route \$2;
#X text 131 8 el-cheapo router for OSC messages mws@samesimilar.com 2025;
#X connect 0 0 2 0;
#X connect 2 0 4 0;
#X connect 2 0 5 0;
#X connect 4 0 1 0;
#X connect 5 0 3 0;
