#N canvas 337 482 693 397 12;
#X obj 101 46 inlet;
#X obj 104 260 outlet;
#X obj 228 51 loadbang;
#X obj 241 117 symbol \$1;
#X obj 241 138 list fromsymbol;
#X obj 240 166 route 47;
#X obj 241 196 list tosymbol;
#X obj 96 90 list trim;
#X obj 512 271 outlet;
#X obj 549 71 symbol \$2;
#X obj 547 122 route 47;
#X obj 547 146 list tosymbol;
#X obj 547 98 list fromsymbol;
#X obj 103 134 route \$1;
#X obj 420 135 route \$2;
#X connect 0 0 7 0;
#X connect 2 0 3 0;
#X connect 2 0 9 0;
#X connect 3 0 4 0;
#X connect 4 0 5 0;
#X connect 5 0 6 0;
#X connect 7 0 13 0;
#X connect 7 0 14 0;
#X connect 9 0 12 0;
#X connect 10 0 11 0;
#X connect 12 0 10 0;
#X connect 13 0 1 0;
#X connect 14 0 8 0;
